<svg width="10" height="14" viewBox="0 0 10 14" fill="none" xmlns="http://www.w3.org/2000/svg">
<path fill-rule="evenodd" clip-rule="evenodd" d="M2.68767 0.95801C4.14424 0.111679 5.9346 0.126472 7.37751 0.996759C8.80622 1.88477 9.67456 3.46961 9.66647 5.17446C9.63322 6.86812 8.70211 8.46016 7.53823 9.69089C6.86647 10.4044 6.11499 11.0354 5.29915 11.5709C5.21512 11.6194 5.12309 11.652 5.02757 11.6668C4.93565 11.6629 4.84613 11.6358 4.76709 11.5878C3.52154 10.7832 2.42881 9.75619 1.54147 8.55614C0.798977 7.55441 0.377142 6.34417 0.333252 5.08978C0.332288 3.38166 1.2311 1.80434 2.68767 0.95801ZM3.52936 5.79668C3.77437 6.40072 4.35271 6.79472 4.99432 6.79473C5.41465 6.79775 5.81871 6.62938 6.11646 6.32715C6.41421 6.02491 6.58091 5.61392 6.57942 5.18575C6.58166 4.53219 6.19689 3.94171 5.60476 3.69001C5.01263 3.43832 4.32995 3.57506 3.87546 4.03639C3.42098 4.49773 3.28435 5.19265 3.52936 5.79668Z" fill="url(#paint0_linear_1844_36)"/>
<ellipse opacity="0.4" cx="4.99984" cy="13.0002" rx="3.33333" ry="0.666667" fill="url(#paint1_linear_1844_36)"/>
<defs>
<linearGradient id="paint0_linear_1844_36" x1="7.83325" y1="-3.58166" x2="0.0350734" y2="22.5488" gradientUnits="userSpaceOnUse">
<stop stop-color="#7B61FF"/>
<stop offset="1" stop-color="#7537FA"/>
</linearGradient>
<linearGradient id="paint1_linear_1844_36" x1="7.02365" y1="11.8729" x2="6.85948" y2="15.2128" gradientUnits="userSpaceOnUse">
<stop stop-color="#7B61FF"/>
<stop offset="1" stop-color="#7537FA"/>
</linearGradient>
</defs>
</svg>
